<?xml version="1.0" encoding="UTF-8" standalone="no"?>
<!DOCTYPE svg PUBLIC "-//W3C//DTD SVG 1.1//EN"
 "http://www.w3.org/Graphics/SVG/1.1/DTD/svg11.dtd">
<!-- Generated by graphviz version 2.43.0 (0)
 -->
<!-- Title: dlzc_mult_top Pages: 1 -->
<svg width="1902pt" height="504pt"
 viewBox="0.00 0.00 1901.87 504.06" xmlns="http://www.w3.org/2000/svg" xmlns:xlink="http://www.w3.org/1999/xlink">
<g id="graph0" class="graph" transform="scale(1 1) rotate(0) translate(4 500.06)">
<title>dlzc_mult_top</title>
<polygon fill="white" stroke="transparent" points="-4,4 -4,-500.06 1897.87,-500.06 1897.87,4 -4,4"/>
<text text-anchor="middle" x="946.94" y="-7.8" font-family="Times,serif" font-size="14.00">dlzc_mult_top</text>
<!-- n7 -->
<g id="node1" class="node">
<title>n7</title>
<polygon fill="none" stroke="black" points="800.09,-369.56 712.95,-351.56 800.09,-333.56 887.23,-351.56 800.09,-369.56"/>
<text text-anchor="middle" x="800.09" y="-347.86" font-family="Times,serif" font-size="14.00">abs_value1</text>
</g>
<!-- c31 -->
<g id="node25" class="node">
<title>c31</title>
<polygon fill="none" stroke="black" points="923.41,-316.56 923.41,-362.56 1108.41,-362.56 1108.41,-316.56 923.41,-316.56"/>
<text text-anchor="middle" x="936.41" y="-347.36" font-family="Times,serif" font-size="14.00">a</text>
<polyline fill="none" stroke="black" points="923.41,-339.56 949.41,-339.56 "/>
<text text-anchor="middle" x="936.41" y="-324.36" font-family="Times,serif" font-size="14.00">b</text>
<polyline fill="none" stroke="black" points="949.41,-316.56 949.41,-362.56 "/>
<text text-anchor="middle" x="991.91" y="-343.36" font-family="Times,serif" font-size="14.00">mult1</text>
<text text-anchor="middle" x="991.91" y="-328.36" font-family="Times,serif" font-size="14.00">dlzc_mult</text>
<polyline fill="none" stroke="black" points="1034.41,-316.56 1034.41,-362.56 "/>
<text text-anchor="middle" x="1071.41" y="-335.86" font-family="Times,serif" font-size="14.00">mul_out</text>
</g>
<!-- n7&#45;&gt;c31 -->
<g id="edge23" class="edge">
<title>n7:e&#45;&gt;c31:w</title>
<path fill="none" stroke="black" stroke-width="3" d="M887.41,-351.56C899.41,-351.56 904.66,-351.56 913.28,-351.56"/>
<polygon fill="black" stroke="black" stroke-width="3" points="913.41,-355.06 923.41,-351.56 913.41,-348.06 913.41,-355.06"/>
</g>
<!-- n8 -->
<g id="node2" class="node">
<title>n8</title>
<polygon fill="none" stroke="black" points="800.09,-184.56 712.95,-166.56 800.09,-148.56 887.23,-166.56 800.09,-184.56"/>
<text text-anchor="middle" x="800.09" y="-162.86" font-family="Times,serif" font-size="14.00">abs_value2</text>
</g>
<!-- n8&#45;&gt;c31 -->
<g id="edge25" class="edge">
<title>n8:e&#45;&gt;c31:w</title>
<path fill="none" stroke="black" stroke-width="3" d="M887.41,-166.56C956.86,-166.56 861.24,-311.03 913.29,-326.27"/>
<polygon fill="black" stroke="black" stroke-width="3" points="913.04,-329.76 923.41,-327.56 913.93,-322.82 913.04,-329.76"/>
</g>
<!-- n9 -->
<g id="node3" class="node">
<title>n9</title>
<polygon fill="none" stroke="black" points="1220.7,-358.56 1144.62,-340.56 1220.7,-322.56 1296.78,-340.56 1220.7,-358.56"/>
<text text-anchor="middle" x="1220.7" y="-336.86" font-family="Times,serif" font-size="14.00">mul_out1</text>
</g>
<!-- c22 -->
<g id="node16" class="node">
<title>c22</title>
<polygon fill="none" stroke="black" points="1332.99,-321.56 1332.99,-359.56 1433.99,-359.56 1433.99,-321.56 1332.99,-321.56"/>
<text text-anchor="middle" x="1345.99" y="-336.86" font-family="Times,serif" font-size="14.00">A</text>
<polyline fill="none" stroke="black" points="1358.99,-321.56 1358.99,-359.56 "/>
<text text-anchor="middle" x="1383.49" y="-344.36" font-family="Times,serif" font-size="14.00">$36</text>
<text text-anchor="middle" x="1383.49" y="-329.36" font-family="Times,serif" font-size="14.00">$not</text>
<polyline fill="none" stroke="black" points="1407.99,-321.56 1407.99,-359.56 "/>
<text text-anchor="middle" x="1420.99" y="-336.86" font-family="Times,serif" font-size="14.00">Y</text>
</g>
<!-- n9&#45;&gt;c22 -->
<g id="edge27" class="edge">
<title>n9:e&#45;&gt;c22:w</title>
<path fill="none" stroke="black" stroke-width="3" d="M1296.99,-340.56C1308.99,-340.56 1314.24,-340.56 1322.86,-340.56"/>
<polygon fill="black" stroke="black" stroke-width="3" points="1322.99,-344.06 1332.99,-340.56 1322.99,-337.06 1322.99,-344.06"/>
</g>
<!-- c24 -->
<g id="node17" class="node">
<title>c24</title>
<polygon fill="none" stroke="black" points="1610.99,-278.06 1610.99,-347.06 1719.99,-347.06 1719.99,-278.06 1610.99,-278.06"/>
<text text-anchor="middle" x="1624.49" y="-331.86" font-family="Times,serif" font-size="14.00">A</text>
<polyline fill="none" stroke="black" points="1610.99,-324.06 1637.99,-324.06 "/>
<text text-anchor="middle" x="1624.49" y="-308.86" font-family="Times,serif" font-size="14.00">B</text>
<polyline fill="none" stroke="black" points="1610.99,-301.06 1637.99,-301.06 "/>
<text text-anchor="middle" x="1624.49" y="-285.86" font-family="Times,serif" font-size="14.00">S</text>
<polyline fill="none" stroke="black" points="1637.99,-278.06 1637.99,-347.06 "/>
<text text-anchor="middle" x="1665.99" y="-316.36" font-family="Times,serif" font-size="14.00">$47</text>
<text text-anchor="middle" x="1665.99" y="-301.36" font-family="Times,serif" font-size="14.00">$mux</text>
<polyline fill="none" stroke="black" points="1693.99,-278.06 1693.99,-347.06 "/>
<text text-anchor="middle" x="1706.99" y="-308.86" font-family="Times,serif" font-size="14.00">Y</text>
</g>
<!-- n9&#45;&gt;c24 -->
<g id="edge28" class="edge">
<title>n9:e&#45;&gt;c24:w</title>
<path fill="none" stroke="black" stroke-width="3" d="M1296.99,-340.56C1317.53,-340.56 1313.61,-362.73 1332.99,-369.56 1375.32,-384.49 1389.26,-373.34 1433.99,-369.56 1497.33,-364.21 1512.95,-359.42 1574.99,-345.56 1587.27,-342.82 1592.07,-338.49 1600.91,-336.56"/>
<polygon fill="black" stroke="black" stroke-width="3" points="1601.38,-340.03 1610.99,-335.56 1600.69,-333.06 1601.38,-340.03"/>
</g>
<!-- n10 -->
<g id="node4" class="node">
<title>n10</title>
<polygon fill="none" stroke="black" points="118.28,-348.11 118.28,-363.02 83.61,-373.56 34.58,-373.56 -0.09,-363.02 -0.09,-348.11 34.58,-337.56 83.61,-337.56 118.28,-348.11"/>
<text text-anchor="middle" x="59.09" y="-351.86" font-family="Times,serif" font-size="14.00">operand1</text>
</g>
<!-- c20 -->
<g id="node14" class="node">
<title>c20</title>
<polygon fill="none" stroke="black" points="221.98,-457.56 221.98,-495.56 322.98,-495.56 322.98,-457.56 221.98,-457.56"/>
<text text-anchor="middle" x="234.98" y="-472.86" font-family="Times,serif" font-size="14.00">A</text>
<polyline fill="none" stroke="black" points="247.98,-457.56 247.98,-495.56 "/>
<text text-anchor="middle" x="272.48" y="-480.36" font-family="Times,serif" font-size="14.00">$29</text>
<text text-anchor="middle" x="272.48" y="-465.36" font-family="Times,serif" font-size="14.00">$not</text>
<polyline fill="none" stroke="black" points="296.98,-457.56 296.98,-495.56 "/>
<text text-anchor="middle" x="309.98" y="-472.86" font-family="Times,serif" font-size="14.00">Y</text>
</g>
<!-- n10&#45;&gt;c20 -->
<g id="edge6" class="edge">
<title>n10:e&#45;&gt;c20:w</title>
<path fill="none" stroke="black" stroke-width="3" d="M118.19,-355.56C162.09,-355.56 123.76,-415.91 154.19,-447.56 173.95,-468.12 185.5,-475.02 210.28,-476.32"/>
<polygon fill="black" stroke="black" stroke-width="3" points="210.4,-479.83 220.48,-476.56 210.56,-472.83 210.4,-479.83"/>
</g>
<!-- c25 -->
<g id="node18" class="node">
<title>c25</title>
<polygon fill="none" stroke="black" points="567.77,-317.06 567.77,-386.06 676.77,-386.06 676.77,-317.06 567.77,-317.06"/>
<text text-anchor="middle" x="581.27" y="-370.86" font-family="Times,serif" font-size="14.00">A</text>
<polyline fill="none" stroke="black" points="567.77,-363.06 594.77,-363.06 "/>
<text text-anchor="middle" x="581.27" y="-347.86" font-family="Times,serif" font-size="14.00">B</text>
<polyline fill="none" stroke="black" points="567.77,-340.06 594.77,-340.06 "/>
<text text-anchor="middle" x="581.27" y="-324.86" font-family="Times,serif" font-size="14.00">S</text>
<polyline fill="none" stroke="black" points="594.77,-317.06 594.77,-386.06 "/>
<text text-anchor="middle" x="622.77" y="-355.36" font-family="Times,serif" font-size="14.00">$31</text>
<text text-anchor="middle" x="622.77" y="-340.36" font-family="Times,serif" font-size="14.00">$mux</text>
<polyline fill="none" stroke="black" points="650.77,-317.06 650.77,-386.06 "/>
<text text-anchor="middle" x="663.77" y="-347.86" font-family="Times,serif" font-size="14.00">Y</text>
</g>
<!-- n10&#45;&gt;c25 -->
<g id="edge7" class="edge">
<title>n10:e&#45;&gt;c25:w</title>
<path fill="none" stroke="black" stroke-width="3" d="M118.19,-355.56C314.76,-355.56 366.04,-373.92 557.64,-374.55"/>
<polygon fill="black" stroke="black" stroke-width="3" points="557.76,-378.05 567.77,-374.56 557.77,-371.05 557.76,-378.05"/>
</g>
<!-- x3 -->
<g id="node19" class="node">
<title>x3</title>
<path fill="none" stroke="black" d="M444.77,-309.56C444.77,-309.56 513.77,-309.56 513.77,-309.56 519.77,-309.56 525.77,-315.56 525.77,-321.56 525.77,-321.56 525.77,-333.56 525.77,-333.56 525.77,-339.56 519.77,-345.56 513.77,-345.56 513.77,-345.56 444.77,-345.56 444.77,-345.56 438.77,-345.56 432.77,-339.56 432.77,-333.56 432.77,-333.56 432.77,-321.56 432.77,-321.56 432.77,-315.56 438.77,-309.56 444.77,-309.56"/>
<text text-anchor="middle" x="479.27" y="-323.86" font-family="Times,serif" font-size="14.00">15:15 &#45; 0:0</text>
</g>
<!-- n10&#45;&gt;x3 -->
<g id="edge8" class="edge">
<title>n10:e&#45;&gt;x3:w</title>
<path fill="none" stroke="black" d="M118.19,-355.56C254.48,-355.56 289.86,-328.91 421.22,-327.61"/>
<polygon fill="black" stroke="black" points="421.28,-331.11 431.27,-327.56 421.25,-324.11 421.28,-331.11"/>
</g>
<!-- x5 -->
<g id="node23" class="node">
<title>x5</title>
<path fill="none" stroke="black" d="M237.98,-271.56C237.98,-271.56 306.98,-271.56 306.98,-271.56 312.98,-271.56 318.98,-277.56 318.98,-283.56 318.98,-283.56 318.98,-295.56 318.98,-295.56 318.98,-301.56 312.98,-307.56 306.98,-307.56 306.98,-307.56 237.98,-307.56 237.98,-307.56 231.98,-307.56 225.98,-301.56 225.98,-295.56 225.98,-295.56 225.98,-283.56 225.98,-283.56 225.98,-277.56 231.98,-271.56 237.98,-271.56"/>
<text text-anchor="middle" x="272.48" y="-285.86" font-family="Times,serif" font-size="14.00">15:15 &#45; 0:0</text>
</g>
<!-- n10&#45;&gt;x5 -->
<g id="edge9" class="edge">
<title>n10:e&#45;&gt;x5:w</title>
<path fill="none" stroke="black" d="M118.19,-355.56C139.89,-355.56 136.16,-334.65 154.19,-322.56 179.83,-305.38 188.23,-292.53 214.41,-290.01"/>
<polygon fill="black" stroke="black" points="214.64,-293.51 224.48,-289.56 214.33,-286.51 214.64,-293.51"/>
</g>
<!-- n11 -->
<g id="node5" class="node">
<title>n11</title>
<polygon fill="none" stroke="black" points="118.28,-156.11 118.28,-171.02 83.61,-181.56 34.58,-181.56 -0.09,-171.02 -0.09,-156.11 34.58,-145.56 83.61,-145.56 118.28,-156.11"/>
<text text-anchor="middle" x="59.09" y="-159.86" font-family="Times,serif" font-size="14.00">operand2</text>
</g>
<!-- c21 -->
<g id="node15" class="node">
<title>c21</title>
<polygon fill="none" stroke="black" points="221.98,-120.56 221.98,-158.56 322.98,-158.56 322.98,-120.56 221.98,-120.56"/>
<text text-anchor="middle" x="234.98" y="-135.86" font-family="Times,serif" font-size="14.00">A</text>
<polyline fill="none" stroke="black" points="247.98,-120.56 247.98,-158.56 "/>
<text text-anchor="middle" x="272.48" y="-143.36" font-family="Times,serif" font-size="14.00">$32</text>
<text text-anchor="middle" x="272.48" y="-128.36" font-family="Times,serif" font-size="14.00">$not</text>
<polyline fill="none" stroke="black" points="296.98,-120.56 296.98,-158.56 "/>
<text text-anchor="middle" x="309.98" y="-135.86" font-family="Times,serif" font-size="14.00">Y</text>
</g>
<!-- n11&#45;&gt;c21 -->
<g id="edge10" class="edge">
<title>n11:e&#45;&gt;c21:w</title>
<path fill="none" stroke="black" stroke-width="3" d="M118.19,-163.56C161.24,-163.56 172.16,-143.17 210.19,-139.98"/>
<polygon fill="black" stroke="black" stroke-width="3" points="210.63,-143.46 220.48,-139.56 210.34,-136.47 210.63,-143.46"/>
</g>
<!-- c26 -->
<g id="node20" class="node">
<title>c26</title>
<polygon fill="none" stroke="black" points="567.77,-111.06 567.77,-180.06 676.77,-180.06 676.77,-111.06 567.77,-111.06"/>
<text text-anchor="middle" x="581.27" y="-164.86" font-family="Times,serif" font-size="14.00">A</text>
<polyline fill="none" stroke="black" points="567.77,-157.06 594.77,-157.06 "/>
<text text-anchor="middle" x="581.27" y="-141.86" font-family="Times,serif" font-size="14.00">B</text>
<polyline fill="none" stroke="black" points="567.77,-134.06 594.77,-134.06 "/>
<text text-anchor="middle" x="581.27" y="-118.86" font-family="Times,serif" font-size="14.00">S</text>
<polyline fill="none" stroke="black" points="594.77,-111.06 594.77,-180.06 "/>
<text text-anchor="middle" x="622.77" y="-149.36" font-family="Times,serif" font-size="14.00">$34</text>
<text text-anchor="middle" x="622.77" y="-134.36" font-family="Times,serif" font-size="14.00">$mux</text>
<polyline fill="none" stroke="black" points="650.77,-111.06 650.77,-180.06 "/>
<text text-anchor="middle" x="663.77" y="-141.86" font-family="Times,serif" font-size="14.00">Y</text>
</g>
<!-- n11&#45;&gt;c26 -->
<g id="edge11" class="edge">
<title>n11:e&#45;&gt;c26:w</title>
<path fill="none" stroke="black" stroke-width="3" d="M118.19,-163.56C134.29,-163.56 138.11,-166.65 154.19,-167.56 334.3,-177.76 382.19,-168.9 557.67,-168.57"/>
<polygon fill="black" stroke="black" stroke-width="3" points="557.77,-172.07 567.77,-168.56 557.76,-165.07 557.77,-172.07"/>
</g>
<!-- x4 -->
<g id="node21" class="node">
<title>x4</title>
<path fill="none" stroke="black" d="M444.77,-34.56C444.77,-34.56 513.77,-34.56 513.77,-34.56 519.77,-34.56 525.77,-40.56 525.77,-46.56 525.77,-46.56 525.77,-58.56 525.77,-58.56 525.77,-64.56 519.77,-70.56 513.77,-70.56 513.77,-70.56 444.77,-70.56 444.77,-70.56 438.77,-70.56 432.77,-64.56 432.77,-58.56 432.77,-58.56 432.77,-46.56 432.77,-46.56 432.77,-40.56 438.77,-34.56 444.77,-34.56"/>
<text text-anchor="middle" x="479.27" y="-48.86" font-family="Times,serif" font-size="14.00">15:15 &#45; 0:0</text>
</g>
<!-- n11&#45;&gt;x4 -->
<g id="edge12" class="edge">
<title>n11:e&#45;&gt;x4:w</title>
<path fill="none" stroke="black" d="M118.19,-163.56C168.36,-163.56 113.65,-86.14 154.19,-56.56 250.86,13.97 304.99,-48.79 420.96,-52.4"/>
<polygon fill="black" stroke="black" points="421.21,-55.91 431.27,-52.56 421.32,-48.91 421.21,-55.91"/>
</g>
<!-- x6 -->
<g id="node24" class="node">
<title>x6</title>
<path fill="none" stroke="black" d="M237.98,-216.56C237.98,-216.56 306.98,-216.56 306.98,-216.56 312.98,-216.56 318.98,-222.56 318.98,-228.56 318.98,-228.56 318.98,-240.56 318.98,-240.56 318.98,-246.56 312.98,-252.56 306.98,-252.56 306.98,-252.56 237.98,-252.56 237.98,-252.56 231.98,-252.56 225.98,-246.56 225.98,-240.56 225.98,-240.56 225.98,-228.56 225.98,-228.56 225.98,-222.56 231.98,-216.56 237.98,-216.56"/>
<text text-anchor="middle" x="272.48" y="-230.86" font-family="Times,serif" font-size="14.00">15:15 &#45; 0:0</text>
</g>
<!-- n11&#45;&gt;x6 -->
<g id="edge13" class="edge">
<title>n11:e&#45;&gt;x6:w</title>
<path fill="none" stroke="black" d="M118.19,-163.56C141.45,-163.56 135.33,-187.94 154.19,-201.56 179.21,-219.64 188.09,-231.78 214.39,-234.14"/>
<polygon fill="black" stroke="black" points="214.34,-237.64 224.48,-234.56 214.63,-230.65 214.34,-237.64"/>
</g>
<!-- n12 -->
<g id="node6" class="node">
<title>n12</title>
<polygon fill="none" stroke="black" points="1893.81,-305.11 1893.81,-320.02 1853.46,-330.56 1796.4,-330.56 1756.04,-320.02 1756.04,-305.11 1796.4,-294.56 1853.46,-294.56 1893.81,-305.11"/>
<text text-anchor="middle" x="1824.93" y="-308.86" font-family="Times,serif" font-size="14.00">output_mul</text>
</g>
<!-- n13 -->
<g id="node7" class="node">
<title>n13</title>
<polygon fill="none" stroke="black" points="1015.91,-258.56 948.71,-240.56 1015.91,-222.56 1083.1,-240.56 1015.91,-258.56"/>
<text text-anchor="middle" x="1015.91" y="-236.86" font-family="Times,serif" font-size="14.00">sign_bit</text>
</g>
<!-- n13&#45;&gt;c24 -->
<g id="edge16" class="edge">
<title>n13:e&#45;&gt;c24:w</title>
<path fill="none" stroke="black" d="M1083.91,-240.56C1239.68,-240.56 1279.07,-241.22 1433.99,-257.56 1497.13,-264.22 1512.8,-267.74 1574.99,-280.56 1587.23,-283.09 1592.12,-286.95 1600.95,-288.68"/>
<polygon fill="black" stroke="black" points="1600.72,-292.17 1610.99,-289.56 1601.33,-285.2 1600.72,-292.17"/>
</g>
<!-- v0 -->
<g id="node8" class="node">
<title>v0</title>
<ellipse fill="none" stroke="black" cx="272.48" cy="-420.56" rx="118.08" ry="18"/>
<text text-anchor="middle" x="272.48" y="-416.86" font-family="Times,serif" font-size="14.00">16&#39;0000000000000001</text>
</g>
<!-- c17 -->
<g id="node9" class="node">
<title>c17</title>
<polygon fill="none" stroke="black" points="426.77,-409.56 426.77,-455.56 531.77,-455.56 531.77,-409.56 426.77,-409.56"/>
<text text-anchor="middle" x="440.27" y="-440.36" font-family="Times,serif" font-size="14.00">A</text>
<polyline fill="none" stroke="black" points="426.77,-432.56 453.77,-432.56 "/>
<text text-anchor="middle" x="440.27" y="-417.36" font-family="Times,serif" font-size="14.00">B</text>
<polyline fill="none" stroke="black" points="453.77,-409.56 453.77,-455.56 "/>
<text text-anchor="middle" x="479.77" y="-436.36" font-family="Times,serif" font-size="14.00">$30</text>
<text text-anchor="middle" x="479.77" y="-421.36" font-family="Times,serif" font-size="14.00">$add</text>
<polyline fill="none" stroke="black" points="505.77,-409.56 505.77,-455.56 "/>
<text text-anchor="middle" x="518.77" y="-428.86" font-family="Times,serif" font-size="14.00">Y</text>
</g>
<!-- v0&#45;&gt;c17 -->
<g id="edge29" class="edge">
<title>v0:e&#45;&gt;c17:w</title>
<path fill="none" stroke="black" stroke-width="3" d="M390.77,-420.56C402.77,-420.56 408.02,-420.56 416.64,-420.56"/>
<polygon fill="black" stroke="black" stroke-width="3" points="416.77,-424.06 426.77,-420.56 416.77,-417.06 416.77,-424.06"/>
</g>
<!-- c17&#45;&gt;c25 -->
<g id="edge5" class="edge">
<title>c17:e&#45;&gt;c25:w</title>
<path fill="none" stroke="black" stroke-width="3" d="M531.77,-432.56C567.01,-432.56 536.48,-367.75 557.85,-354.08"/>
<polygon fill="black" stroke="black" stroke-width="3" points="558.93,-357.41 567.77,-351.56 557.21,-350.63 558.93,-357.41"/>
</g>
<!-- v1 -->
<g id="node10" class="node">
<title>v1</title>
<ellipse fill="none" stroke="black" cx="272.48" cy="-83.56" rx="118.08" ry="18"/>
<text text-anchor="middle" x="272.48" y="-79.86" font-family="Times,serif" font-size="14.00">16&#39;0000000000000001</text>
</g>
<!-- c18 -->
<g id="node11" class="node">
<title>c18</title>
<polygon fill="none" stroke="black" points="426.77,-104.56 426.77,-150.56 531.77,-150.56 531.77,-104.56 426.77,-104.56"/>
<text text-anchor="middle" x="440.27" y="-135.36" font-family="Times,serif" font-size="14.00">A</text>
<polyline fill="none" stroke="black" points="426.77,-127.56 453.77,-127.56 "/>
<text text-anchor="middle" x="440.27" y="-112.36" font-family="Times,serif" font-size="14.00">B</text>
<polyline fill="none" stroke="black" points="453.77,-104.56 453.77,-150.56 "/>
<text text-anchor="middle" x="479.77" y="-131.36" font-family="Times,serif" font-size="14.00">$33</text>
<text text-anchor="middle" x="479.77" y="-116.36" font-family="Times,serif" font-size="14.00">$add</text>
<polyline fill="none" stroke="black" points="505.77,-104.56 505.77,-150.56 "/>
<text text-anchor="middle" x="518.77" y="-123.86" font-family="Times,serif" font-size="14.00">Y</text>
</g>
<!-- v1&#45;&gt;c18 -->
<g id="edge30" class="edge">
<title>v1:e&#45;&gt;c18:w</title>
<path fill="none" stroke="black" stroke-width="3" d="M390.77,-83.56C407.99,-83.56 406.94,-104.28 417.03,-112.38"/>
<polygon fill="black" stroke="black" stroke-width="3" points="416.17,-115.78 426.77,-115.56 418.35,-109.13 416.17,-115.78"/>
</g>
<!-- c18&#45;&gt;c26 -->
<g id="edge17" class="edge">
<title>c18:e&#45;&gt;c26:w</title>
<path fill="none" stroke="black" stroke-width="3" d="M531.77,-127.56C545.6,-127.56 548.87,-138.33 557.92,-143.21"/>
<polygon fill="black" stroke="black" stroke-width="3" points="557.23,-146.64 567.77,-145.56 558.85,-139.83 557.23,-146.64"/>
</g>
<!-- v2 -->
<g id="node12" class="node">
<title>v2</title>
<ellipse fill="none" stroke="black" cx="1383.49" cy="-284.56" rx="27" ry="18"/>
<text text-anchor="middle" x="1383.49" y="-280.86" font-family="Times,serif" font-size="14.00">1</text>
</g>
<!-- c19 -->
<g id="node13" class="node">
<title>c19</title>
<polygon fill="none" stroke="black" points="1469.99,-289.56 1469.99,-335.56 1574.99,-335.56 1574.99,-289.56 1469.99,-289.56"/>
<text text-anchor="middle" x="1483.49" y="-320.36" font-family="Times,serif" font-size="14.00">A</text>
<polyline fill="none" stroke="black" points="1469.99,-312.56 1496.99,-312.56 "/>
<text text-anchor="middle" x="1483.49" y="-297.36" font-family="Times,serif" font-size="14.00">B</text>
<polyline fill="none" stroke="black" points="1496.99,-289.56 1496.99,-335.56 "/>
<text text-anchor="middle" x="1522.99" y="-316.36" font-family="Times,serif" font-size="14.00">$37</text>
<text text-anchor="middle" x="1522.99" y="-301.36" font-family="Times,serif" font-size="14.00">$add</text>
<polyline fill="none" stroke="black" points="1548.99,-289.56 1548.99,-335.56 "/>
<text text-anchor="middle" x="1561.99" y="-308.86" font-family="Times,serif" font-size="14.00">Y</text>
</g>
<!-- v2&#45;&gt;c19 -->
<g id="edge31" class="edge">
<title>v2:e&#45;&gt;c19:w</title>
<path fill="none" stroke="black" stroke-width="3" d="M1411.49,-284.56C1434.65,-284.56 1441.3,-296.38 1459.82,-299.7"/>
<polygon fill="black" stroke="black" stroke-width="3" points="1459.73,-303.21 1469.99,-300.56 1460.32,-296.23 1459.73,-303.21"/>
</g>
<!-- c19&#45;&gt;c24 -->
<g id="edge18" class="edge">
<title>c19:e&#45;&gt;c24:w</title>
<path fill="none" stroke="black" stroke-width="3" d="M1574.99,-312.56C1586.99,-312.56 1592.24,-312.56 1600.86,-312.56"/>
<polygon fill="black" stroke="black" stroke-width="3" points="1600.99,-316.06 1610.99,-312.56 1600.99,-309.06 1600.99,-316.06"/>
</g>
<!-- c20&#45;&gt;c17 -->
<g id="edge19" class="edge">
<title>c20:e&#45;&gt;c17:w</title>
<path fill="none" stroke="black" stroke-width="3" d="M324.48,-476.56C368.39,-476.56 377.79,-449.37 416.31,-445.12"/>
<polygon fill="black" stroke="black" stroke-width="3" points="416.97,-448.59 426.77,-444.56 416.59,-441.6 416.97,-448.59"/>
</g>
<!-- c21&#45;&gt;c18 -->
<g id="edge20" class="edge">
<title>c21:e&#45;&gt;c18:w</title>
<path fill="none" stroke="black" stroke-width="3" d="M324.48,-139.56C366.39,-139.56 379.32,-139.56 416.7,-139.56"/>
<polygon fill="black" stroke="black" stroke-width="3" points="416.77,-143.06 426.77,-139.56 416.77,-136.06 416.77,-143.06"/>
</g>
<!-- c22&#45;&gt;c19 -->
<g id="edge21" class="edge">
<title>c22:e&#45;&gt;c19:w</title>
<path fill="none" stroke="black" stroke-width="3" d="M1433.99,-340.56C1447.39,-340.56 1451.11,-331.18 1459.97,-326.79"/>
<polygon fill="black" stroke="black" stroke-width="3" points="1460.98,-330.15 1469.99,-324.56 1459.46,-323.32 1460.98,-330.15"/>
</g>
<!-- c24&#45;&gt;n12 -->
<g id="edge14" class="edge">
<title>c24:e&#45;&gt;n12:w</title>
<path fill="none" stroke="black" stroke-width="3" d="M1719.99,-312.56C1731.99,-312.56 1737.24,-312.56 1745.86,-312.56"/>
<polygon fill="black" stroke="black" stroke-width="3" points="1745.99,-316.06 1755.99,-312.56 1745.99,-309.06 1745.99,-316.06"/>
</g>
<!-- c25&#45;&gt;n7 -->
<g id="edge22" class="edge">
<title>c25:e&#45;&gt;n7:w</title>
<path fill="none" stroke="black" stroke-width="3" d="M676.77,-351.56C688.77,-351.56 694.02,-351.56 702.64,-351.56"/>
<polygon fill="black" stroke="black" stroke-width="3" points="702.77,-355.06 712.77,-351.56 702.77,-348.06 702.77,-355.06"/>
</g>
<!-- x3&#45;&gt;c25 -->
<g id="edge1" class="edge">
<title>x3:e&#45;&gt;c25:w</title>
<path fill="none" stroke="black" d="M539.56,-327.75C545.29,-327.93 549.77,-328.2 555.51,-328.38"/>
<polygon fill="none" stroke="black" points="539.26,-327.74 533.21,-331.65 527.27,-327.56 533.32,-323.65 539.26,-327.74"/>
<polygon fill="none" stroke="black" points="555.77,-328.38 561.83,-324.47 567.77,-328.56 561.71,-332.47 555.77,-328.38"/>
</g>
<!-- c26&#45;&gt;n8 -->
<g id="edge24" class="edge">
<title>c26:e&#45;&gt;n8:w</title>
<path fill="none" stroke="black" stroke-width="3" d="M676.77,-145.56C691.24,-145.56 693.76,-158.38 703.01,-163.99"/>
<polygon fill="black" stroke="black" stroke-width="3" points="702.2,-167.4 712.77,-166.56 703.99,-160.63 702.2,-167.4"/>
</g>
<!-- x4&#45;&gt;c26 -->
<g id="edge2" class="edge">
<title>x4:e&#45;&gt;c26:w</title>
<path fill="none" stroke="black" d="M538.81,-56.33C552.94,-68.48 542.1,-106.6 556.2,-118.78"/>
<polygon fill="none" stroke="black" points="538.67,-56.28 531.73,-58.23 527.27,-52.56 534.21,-50.62 538.67,-56.28"/>
<polygon fill="none" stroke="black" points="556.36,-118.83 563.31,-116.9 567.77,-122.56 560.82,-124.5 556.36,-118.83"/>
</g>
<!-- c27 -->
<g id="node22" class="node">
<title>c27</title>
<polygon fill="none" stroke="black" points="428.27,-223.56 428.27,-269.56 530.27,-269.56 530.27,-223.56 428.27,-223.56"/>
<text text-anchor="middle" x="441.77" y="-254.36" font-family="Times,serif" font-size="14.00">A</text>
<polyline fill="none" stroke="black" points="428.27,-246.56 455.27,-246.56 "/>
<text text-anchor="middle" x="441.77" y="-231.36" font-family="Times,serif" font-size="14.00">B</text>
<polyline fill="none" stroke="black" points="455.27,-223.56 455.27,-269.56 "/>
<text text-anchor="middle" x="479.77" y="-250.36" font-family="Times,serif" font-size="14.00">$28</text>
<text text-anchor="middle" x="479.77" y="-235.36" font-family="Times,serif" font-size="14.00">$xor</text>
<polyline fill="none" stroke="black" points="504.27,-223.56 504.27,-269.56 "/>
<text text-anchor="middle" x="517.27" y="-242.86" font-family="Times,serif" font-size="14.00">Y</text>
</g>
<!-- c27&#45;&gt;n13 -->
<g id="edge15" class="edge">
<title>c27:e&#45;&gt;n13:w</title>
<path fill="none" stroke="black" d="M531.27,-246.56C713.02,-246.56 760.95,-240.78 937.74,-240.57"/>
<polygon fill="black" stroke="black" points="937.91,-244.07 947.91,-240.56 937.9,-237.07 937.91,-244.07"/>
</g>
<!-- x5&#45;&gt;c27 -->
<g id="edge3" class="edge">
<title>x5:e&#45;&gt;c27:w</title>
<path fill="none" stroke="black" d="M332.6,-288.89C367.81,-284.8 379.85,-263.4 414.99,-259.26"/>
<polygon fill="none" stroke="black" points="332.46,-288.89 326.69,-293.22 320.48,-289.56 326.24,-285.24 332.46,-288.89"/>
<polygon fill="none" stroke="black" points="415.28,-259.24 421.05,-254.91 427.27,-258.56 421.5,-262.9 415.28,-259.24"/>
</g>
<!-- x6&#45;&gt;c27 -->
<g id="edge4" class="edge">
<title>x6:e&#45;&gt;c27:w</title>
<path fill="none" stroke="black" d="M332.95,-234.56C366.66,-234.56 381.21,-234.56 415.01,-234.56"/>
<polygon fill="none" stroke="black" points="332.48,-234.56 326.48,-238.56 320.48,-234.56 326.48,-230.56 332.48,-234.56"/>
<polygon fill="none" stroke="black" points="415.27,-234.56 421.27,-230.56 427.27,-234.56 421.27,-238.56 415.27,-234.56"/>
</g>
<!-- c31&#45;&gt;n9 -->
<g id="edge26" class="edge">
<title>c31:e&#45;&gt;n9:w</title>
<path fill="none" stroke="black" stroke-width="3" d="M1108.41,-339.56C1120.41,-339.56 1125.65,-340.13 1134.28,-340.41"/>
<polygon fill="black" stroke="black" stroke-width="3" points="1134.35,-343.91 1144.41,-340.56 1134.46,-336.91 1134.35,-343.91"/>
</g>
</g>
</svg>
