<?xml version="1.0" encoding="UTF-8" standalone="no"?>
<!DOCTYPE svg PUBLIC "-//W3C//DTD SVG 1.1//EN"
 "http://www.w3.org/Graphics/SVG/1.1/DTD/svg11.dtd">
<!-- Generated by graphviz version 2.43.0 (0)
 -->
<!-- Title: dlzs_snap_exp Pages: 1 -->
<svg width="1173pt" height="158pt"
 viewBox="0.00 0.00 1173.01 157.50" xmlns="http://www.w3.org/2000/svg" xmlns:xlink="http://www.w3.org/1999/xlink">
<g id="graph0" class="graph" transform="scale(1 1) rotate(0) translate(4 153.5)">
<title>dlzs_snap_exp</title>
<polygon fill="white" stroke="transparent" points="-4,4 -4,-153.5 1169.01,-153.5 1169.01,4 -4,4"/>
<text text-anchor="middle" x="582.5" y="-7.8" font-family="Times,serif" font-size="14.00">dlzs_snap_exp</text>
<!-- n2 -->
<g id="node1" class="node">
<title>n2</title>
<polygon fill="none" stroke="black" points="1129.5,-70.04 1129.5,-84.96 1113.69,-95.5 1091.32,-95.5 1075.5,-84.96 1075.5,-70.04 1091.32,-59.5 1113.69,-59.5 1129.5,-70.04"/>
<text text-anchor="middle" x="1102.5" y="-73.8" font-family="Times,serif" font-size="14.00">e</text>
</g>
<!-- n3 -->
<g id="node2" class="node">
<title>n3</title>
<polygon fill="none" stroke="black" points="54,-91.04 54,-105.96 38.18,-116.5 15.82,-116.5 0,-105.96 0,-91.04 15.82,-80.5 38.18,-80.5 54,-91.04"/>
<text text-anchor="middle" x="27" y="-94.8" font-family="Times,serif" font-size="14.00">m</text>
</g>
<!-- c9 -->
<g id="node5" class="node">
<title>c9</title>
<polygon fill="none" stroke="black" points="219,-61.5 219,-107.5 324,-107.5 324,-61.5 219,-61.5"/>
<text text-anchor="middle" x="232.5" y="-92.3" font-family="Times,serif" font-size="14.00">A</text>
<polyline fill="none" stroke="black" points="219,-84.5 246,-84.5 "/>
<text text-anchor="middle" x="232.5" y="-69.3" font-family="Times,serif" font-size="14.00">B</text>
<polyline fill="none" stroke="black" points="246,-61.5 246,-107.5 "/>
<text text-anchor="middle" x="272" y="-88.3" font-family="Times,serif" font-size="14.00">$6</text>
<text text-anchor="middle" x="272" y="-73.3" font-family="Times,serif" font-size="14.00">$and</text>
<polyline fill="none" stroke="black" points="298,-61.5 298,-107.5 "/>
<text text-anchor="middle" x="311" y="-80.8" font-family="Times,serif" font-size="14.00">Y</text>
</g>
<!-- n3&#45;&gt;c9 -->
<g id="edge6" class="edge">
<title>n3:e&#45;&gt;c9:w</title>
<path fill="none" stroke="black" stroke-width="3" d="M54,-98.5C123.76,-98.5 143.74,-96.69 208.64,-96.51"/>
<polygon fill="black" stroke="black" stroke-width="3" points="209,-100.01 219,-96.5 209,-93.01 209,-100.01"/>
</g>
<!-- x0 -->
<g id="node6" class="node">
<title>x0</title>
<path fill="none" stroke="black" d="M102,-23.5C102,-23.5 171,-23.5 171,-23.5 177,-23.5 183,-29.5 183,-35.5 183,-35.5 183,-57.5 183,-57.5 183,-63.5 177,-69.5 171,-69.5 171,-69.5 102,-69.5 102,-69.5 96,-69.5 90,-63.5 90,-57.5 90,-57.5 90,-35.5 90,-35.5 90,-29.5 96,-23.5 102,-23.5"/>
<text text-anchor="middle" x="136.5" y="-54.3" font-family="Times,serif" font-size="14.00">0 &#45;&gt; 15:15</text>
<polyline fill="none" stroke="black" points="90,-46.5 183,-46.5 "/>
<text text-anchor="middle" x="136.5" y="-31.3" font-family="Times,serif" font-size="14.00">15:1 &#45; 14:0</text>
</g>
<!-- n3&#45;&gt;x0 -->
<g id="edge7" class="edge">
<title>n3:e&#45;&gt;x0:w</title>
<path fill="none" stroke="black" stroke-width="3" d="M54,-98.5C82.3,-98.5 64.05,-50.37 79.98,-37.59"/>
<polygon fill="black" stroke="black" stroke-width="3" points="81.47,-40.79 90,-34.5 79.41,-34.1 81.47,-40.79"/>
</g>
<!-- c10 -->
<g id="node7" class="node">
<title>c10</title>
<polygon fill="none" stroke="black" points="489,-81.5 489,-127.5 583,-127.5 583,-81.5 489,-81.5"/>
<text text-anchor="middle" x="502.5" y="-112.3" font-family="Times,serif" font-size="14.00">A</text>
<polyline fill="none" stroke="black" points="489,-104.5 516,-104.5 "/>
<text text-anchor="middle" x="502.5" y="-89.3" font-family="Times,serif" font-size="14.00">B</text>
<polyline fill="none" stroke="black" points="516,-81.5 516,-127.5 "/>
<text text-anchor="middle" x="536.5" y="-108.3" font-family="Times,serif" font-size="14.00">$8</text>
<text text-anchor="middle" x="536.5" y="-93.3" font-family="Times,serif" font-size="14.00">$or</text>
<polyline fill="none" stroke="black" points="557,-81.5 557,-127.5 "/>
<text text-anchor="middle" x="570" y="-100.8" font-family="Times,serif" font-size="14.00">Y</text>
</g>
<!-- n3&#45;&gt;c10 -->
<g id="edge5" class="edge">
<title>n3:e&#45;&gt;c10:w</title>
<path fill="none" stroke="black" stroke-width="3" d="M54,-98.5C71.01,-98.5 73.32,-108.18 90,-111.5 260.54,-145.45 309.74,-117.63 478.76,-116.53"/>
<polygon fill="black" stroke="black" stroke-width="3" points="479.01,-120.03 489,-116.5 478.99,-113.03 479.01,-120.03"/>
</g>
<!-- n4 -->
<g id="node3" class="node">
<title>n4</title>
<polygon fill="none" stroke="black" points="1102.5,-149.5 1040,-131.5 1102.5,-113.5 1165.01,-131.5 1102.5,-149.5"/>
<text text-anchor="middle" x="1102.5" y="-127.8" font-family="Times,serif" font-size="14.00">unused</text>
</g>
<!-- n5 -->
<g id="node4" class="node">
<title>n5</title>
<polygon fill="none" stroke="black" points="646,-122.5 619,-104.5 646,-86.5 673,-104.5 646,-122.5"/>
<text text-anchor="middle" x="646" y="-100.8" font-family="Times,serif" font-size="14.00">v</text>
</g>
<!-- c14 -->
<g id="node9" class="node">
<title>c14</title>
<polygon fill="none" stroke="black" points="709,-81.5 709,-127.5 1004,-127.5 1004,-81.5 709,-81.5"/>
<text text-anchor="middle" x="768.5" y="-100.8" font-family="Times,serif" font-size="14.00">input_operand</text>
<polyline fill="none" stroke="black" points="828,-81.5 828,-127.5 "/>
<text text-anchor="middle" x="858.5" y="-108.3" font-family="Times,serif" font-size="14.00">lead1</text>
<text text-anchor="middle" x="858.5" y="-93.3" font-family="Times,serif" font-size="14.00">lzc_16</text>
<polyline fill="none" stroke="black" points="889,-81.5 889,-127.5 "/>
<text text-anchor="middle" x="946.5" y="-112.3" font-family="Times,serif" font-size="14.00">all_zero</text>
<polyline fill="none" stroke="black" points="889,-104.5 1004,-104.5 "/>
<text text-anchor="middle" x="946.5" y="-89.3" font-family="Times,serif" font-size="14.00">output_power</text>
</g>
<!-- n5&#45;&gt;c14 -->
<g id="edge10" class="edge">
<title>n5:e&#45;&gt;c14:w</title>
<path fill="none" stroke="black" stroke-width="3" d="M673,-104.5C685,-104.5 690.25,-104.5 698.88,-104.5"/>
<polygon fill="black" stroke="black" stroke-width="3" points="699,-108 709,-104.5 699,-101 699,-108"/>
</g>
<!-- x1 -->
<g id="node8" class="node">
<title>x1</title>
<path fill="none" stroke="black" d="M372,-55.5C372,-55.5 441,-55.5 441,-55.5 447,-55.5 453,-61.5 453,-67.5 453,-67.5 453,-89.5 453,-89.5 453,-95.5 447,-101.5 441,-101.5 441,-101.5 372,-101.5 372,-101.5 366,-101.5 360,-95.5 360,-89.5 360,-89.5 360,-67.5 360,-67.5 360,-61.5 366,-55.5 372,-55.5"/>
<text text-anchor="middle" x="406.5" y="-86.3" font-family="Times,serif" font-size="14.00">13:0 &#45; 15:2</text>
<polyline fill="none" stroke="black" points="360,-78.5 453,-78.5 "/>
<text text-anchor="middle" x="406.5" y="-63.3" font-family="Times,serif" font-size="14.00">0 &#45;&gt; 1:0</text>
</g>
<!-- c9&#45;&gt;x1 -->
<g id="edge3" class="edge">
<title>c9:e&#45;&gt;x1:w</title>
<path fill="none" stroke="black" stroke-width="3" d="M324,-84.5C336.17,-84.5 341.21,-87.88 349.81,-89.56"/>
<polygon fill="black" stroke="black" stroke-width="3" points="349.72,-93.07 360,-90.5 350.36,-86.1 349.72,-93.07"/>
</g>
<!-- x0&#45;&gt;c9 -->
<g id="edge1" class="edge">
<title>x0:e&#45;&gt;c9:w</title>
<path fill="none" stroke="black" stroke-width="3" d="M194.68,-51.03C199.71,-55.8 202.33,-63.27 207.37,-68.02"/>
<polygon fill="none" stroke="black" stroke-width="3" points="194.19,-50.84 187.15,-52.4 183,-46.5 190.04,-44.94 194.19,-50.84"/>
<polygon fill="none" stroke="black" stroke-width="3" points="207.8,-68.19 214.84,-66.61 219,-72.5 211.96,-74.08 207.8,-68.19"/>
</g>
<!-- c10&#45;&gt;n5 -->
<g id="edge9" class="edge">
<title>c10:e&#45;&gt;n5:w</title>
<path fill="none" stroke="black" stroke-width="3" d="M583,-104.5C595,-104.5 600.25,-104.5 608.88,-104.5"/>
<polygon fill="black" stroke="black" stroke-width="3" points="609,-108 619,-104.5 609,-101 609,-108"/>
</g>
<!-- x1&#45;&gt;c10 -->
<g id="edge2" class="edge">
<title>x1:e&#45;&gt;c10:w</title>
<path fill="none" stroke="black" stroke-width="3" d="M464.75,-81.33C469.31,-83.76 472.7,-87.24 477.26,-89.67"/>
<polygon fill="none" stroke="black" stroke-width="3" points="464.67,-81.31 457.9,-83.79 453,-78.5 459.77,-76.02 464.67,-81.31"/>
<polygon fill="none" stroke="black" stroke-width="3" points="477.33,-89.69 484.1,-87.21 489,-92.5 482.23,-94.98 477.33,-89.69"/>
</g>
<!-- c14&#45;&gt;n2 -->
<g id="edge4" class="edge">
<title>c14:e&#45;&gt;n2:w</title>
<path fill="none" stroke="black" stroke-width="3" d="M1004,-92.5C1032.28,-92.5 1040.61,-80.81 1064.21,-78.07"/>
<polygon fill="black" stroke="black" stroke-width="3" points="1064.71,-81.55 1074.5,-77.5 1064.32,-74.56 1064.71,-81.55"/>
</g>
<!-- c14&#45;&gt;n4 -->
<g id="edge8" class="edge">
<title>c14:e&#45;&gt;n4:w</title>
<path fill="none" stroke="black" d="M1004,-116.5C1017.27,-116.5 1021.16,-125.29 1030.04,-129.41"/>
<polygon fill="black" stroke="black" points="1029.49,-132.88 1040,-131.5 1030.93,-126.03 1029.49,-132.88"/>
</g>
</g>
</svg>
