<?xml version="1.0" encoding="UTF-8" standalone="no"?>
<!DOCTYPE svg PUBLIC "-//W3C//DTD SVG 1.1//EN"
 "http://www.w3.org/Graphics/SVG/1.1/DTD/svg11.dtd">
<!-- Generated by graphviz version 2.43.0 (0)
 -->
<!-- Title: drum_opt_shift Pages: 1 -->
<svg width="528pt" height="198pt"
 viewBox="0.00 0.00 527.58 198.00" xmlns="http://www.w3.org/2000/svg" xmlns:xlink="http://www.w3.org/1999/xlink">
<g id="graph0" class="graph" transform="scale(1 1) rotate(0) translate(4 194)">
<title>drum_opt_shift</title>
<polygon fill="white" stroke="transparent" points="-4,4 -4,-194 523.58,-194 523.58,4 -4,4"/>
<text text-anchor="middle" x="259.79" y="-7.8" font-family="Times,serif" font-size="14.00">drum_opt_shift</text>
<!-- n1 -->
<g id="node1" class="node">
<title>n1</title>
<polygon fill="none" stroke="black" points="519.58,-129.04 519.58,-143.96 503.76,-154.5 481.39,-154.5 465.58,-143.96 465.58,-129.04 481.39,-118.5 503.76,-118.5 519.58,-129.04"/>
<text text-anchor="middle" x="492.58" y="-132.8" font-family="Times,serif" font-size="14.00">p</text>
</g>
<!-- n2 -->
<g id="node2" class="node">
<title>n2</title>
<polygon fill="none" stroke="black" points="70.52,-99.04 70.52,-113.96 49.82,-124.5 20.53,-124.5 -0.18,-113.96 -0.18,-99.04 20.53,-88.5 49.82,-88.5 70.52,-99.04"/>
<text text-anchor="middle" x="35.17" y="-102.8" font-family="Times,serif" font-size="14.00">prod</text>
</g>
<!-- x0 -->
<g id="node6" class="node">
<title>x0</title>
<path fill="none" stroke="black" d="M118.35,-143.5C118.35,-143.5 236.35,-143.5 236.35,-143.5 242.35,-143.5 248.35,-149.5 248.35,-155.5 248.35,-155.5 248.35,-177.5 248.35,-177.5 248.35,-183.5 242.35,-189.5 236.35,-189.5 236.35,-189.5 118.35,-189.5 118.35,-189.5 112.35,-189.5 106.35,-183.5 106.35,-177.5 106.35,-177.5 106.35,-155.5 106.35,-155.5 106.35,-149.5 112.35,-143.5 118.35,-143.5"/>
<text text-anchor="middle" x="177.35" y="-174.3" font-family="Times,serif" font-size="14.00">18x 13:13 &#45; 31:14</text>
<polyline fill="none" stroke="black" points="106.35,-166.5 248.35,-166.5 "/>
<text text-anchor="middle" x="177.35" y="-151.3" font-family="Times,serif" font-size="14.00">13:0 &#45; 13:0</text>
</g>
<!-- n2&#45;&gt;x0 -->
<g id="edge3" class="edge">
<title>n2:e&#45;&gt;x0:w</title>
<path fill="none" stroke="black" stroke-width="3" d="M70.35,-106.5C92.85,-106.5 84.03,-140.67 96.74,-151.35"/>
<polygon fill="black" stroke="black" stroke-width="3" points="95.76,-154.71 106.35,-154.5 97.94,-148.06 95.76,-154.71"/>
</g>
<!-- n2&#45;&gt;x0 -->
<g id="edge4" class="edge">
<title>n2:e&#45;&gt;x0:w</title>
<path fill="none" stroke="black" stroke-width="3" d="M70.35,-106.5C101.93,-106.5 77.93,-162.61 96.48,-175.77"/>
<polygon fill="black" stroke="black" stroke-width="3" points="95.78,-179.2 106.35,-178.5 97.65,-172.46 95.78,-179.2"/>
</g>
<!-- x1 -->
<g id="node7" class="node">
<title>x1</title>
<path fill="none" stroke="black" d="M118.35,-23.5C118.35,-23.5 236.35,-23.5 236.35,-23.5 242.35,-23.5 248.35,-29.5 248.35,-35.5 248.35,-35.5 248.35,-57.5 248.35,-57.5 248.35,-63.5 242.35,-69.5 236.35,-69.5 236.35,-69.5 118.35,-69.5 118.35,-69.5 112.35,-69.5 106.35,-63.5 106.35,-57.5 106.35,-57.5 106.35,-35.5 106.35,-35.5 106.35,-29.5 112.35,-23.5 118.35,-23.5"/>
<text text-anchor="middle" x="177.35" y="-54.3" font-family="Times,serif" font-size="14.00">18x 13:13 &#45; 31:14</text>
<polyline fill="none" stroke="black" points="106.35,-46.5 248.35,-46.5 "/>
<text text-anchor="middle" x="177.35" y="-31.3" font-family="Times,serif" font-size="14.00">13:0 &#45; 13:0</text>
</g>
<!-- n2&#45;&gt;x1 -->
<g id="edge5" class="edge">
<title>n2:e&#45;&gt;x1:w</title>
<path fill="none" stroke="black" stroke-width="3" d="M70.35,-106.5C101.93,-106.5 77.93,-50.39 96.48,-37.23"/>
<polygon fill="black" stroke="black" stroke-width="3" points="97.65,-40.54 106.35,-34.5 95.78,-33.8 97.65,-40.54"/>
</g>
<!-- n2&#45;&gt;x1 -->
<g id="edge6" class="edge">
<title>n2:e&#45;&gt;x1:w</title>
<path fill="none" stroke="black" stroke-width="3" d="M70.35,-106.5C92.85,-106.5 84.03,-72.33 96.74,-61.65"/>
<polygon fill="black" stroke="black" stroke-width="3" points="97.94,-64.94 106.35,-58.5 95.76,-58.29 97.94,-64.94"/>
</g>
<!-- n3 -->
<g id="node3" class="node">
<title>n3</title>
<polygon fill="none" stroke="black" points="356.96,-64.5 284.24,-46.5 356.96,-28.5 429.69,-46.5 356.96,-64.5"/>
<text text-anchor="middle" x="356.96" y="-42.8" font-family="Times,serif" font-size="14.00">prod_ext</text>
</g>
<!-- n4 -->
<g id="node4" class="node">
<title>n4</title>
<polygon fill="none" stroke="black" points="204.35,-99.04 204.35,-113.96 188.53,-124.5 166.17,-124.5 150.35,-113.96 150.35,-99.04 166.17,-88.5 188.53,-88.5 204.35,-99.04"/>
<text text-anchor="middle" x="177.35" y="-102.8" font-family="Times,serif" font-size="14.00">sh</text>
</g>
<!-- c8 -->
<g id="node5" class="node">
<title>c8</title>
<polygon fill="none" stroke="black" points="306.96,-113.5 306.96,-159.5 406.96,-159.5 406.96,-113.5 306.96,-113.5"/>
<text text-anchor="middle" x="320.46" y="-144.3" font-family="Times,serif" font-size="14.00">A</text>
<polyline fill="none" stroke="black" points="306.96,-136.5 333.96,-136.5 "/>
<text text-anchor="middle" x="320.46" y="-121.3" font-family="Times,serif" font-size="14.00">B</text>
<polyline fill="none" stroke="black" points="333.96,-113.5 333.96,-159.5 "/>
<text text-anchor="middle" x="357.46" y="-140.3" font-family="Times,serif" font-size="14.00">$58</text>
<text text-anchor="middle" x="357.46" y="-125.3" font-family="Times,serif" font-size="14.00">$shl</text>
<polyline fill="none" stroke="black" points="380.96,-113.5 380.96,-159.5 "/>
<text text-anchor="middle" x="393.96" y="-132.8" font-family="Times,serif" font-size="14.00">Y</text>
</g>
<!-- n4&#45;&gt;c8 -->
<g id="edge8" class="edge">
<title>n4:e&#45;&gt;c8:w</title>
<path fill="none" stroke="black" stroke-width="3" d="M205.35,-106.5C247.23,-106.5 258.79,-121.8 295.93,-124.19"/>
<polygon fill="black" stroke="black" stroke-width="3" points="295.86,-127.69 305.96,-124.5 296.08,-120.69 295.86,-127.69"/>
</g>
<!-- c8&#45;&gt;n1 -->
<g id="edge2" class="edge">
<title>c8:e&#45;&gt;n1:w</title>
<path fill="none" stroke="black" stroke-width="3" d="M407.96,-136.5C429.77,-136.5 437.65,-136.5 455.32,-136.5"/>
<polygon fill="black" stroke="black" stroke-width="3" points="455.58,-140 465.58,-136.5 455.58,-133 455.58,-140"/>
</g>
<!-- x0&#45;&gt;c8 -->
<g id="edge1" class="edge">
<title>x0:e&#45;&gt;c8:w</title>
<path fill="none" stroke="black" stroke-width="3" d="M260.39,-165.09C273.66,-161.74 280.53,-153.35 293.75,-149.96"/>
<polygon fill="none" stroke="black" stroke-width="3" points="260.27,-165.1 254.77,-169.77 248.35,-166.5 253.84,-161.83 260.27,-165.1"/>
<polygon fill="none" stroke="black" stroke-width="3" points="294.05,-149.92 299.53,-145.24 305.96,-148.5 300.48,-153.18 294.05,-149.92"/>
</g>
<!-- x1&#45;&gt;n3 -->
<g id="edge7" class="edge">
<title>x1:e&#45;&gt;n3:w</title>
<path fill="none" stroke="black" stroke-width="3" d="M248.35,-46.5C260.35,-46.5 265.6,-46.5 274.22,-46.5"/>
<polygon fill="black" stroke="black" stroke-width="3" points="274.35,-50 284.35,-46.5 274.35,-43 274.35,-50"/>
</g>
</g>
</svg>
